<svg width="14" height="14" viewBox="0 0 14 14" fill="none" xmlns="http://www.w3.org/2000/svg">
<g clip-path="url(#clip0_288_341)">
<path d="M3.11311 11.55H1.83548C0.962725 11.55 0 10.4811 0 9.56353V1.99596C0.0719794 1.04056 0.755784 0.227042 1.65553 0.0473128C5.12853 -0.0378224 8.61054 0.0378533 12.0835 0.00947491C13.1003 0.0851506 13.919 0.936502 14 1.99596V9.56353C13.919 10.623 13.1093 11.4554 12.1105 11.55H7.14396C6.38817 12.0987 5.66838 12.7041 4.93059 13.2811C4.62468 13.5176 4.10283 14.0189 3.73393 14C3.47301 13.9906 3.13111 13.6973 3.13111 13.4135V11.55H3.11311ZM4.08483 12.6189L4.1838 12.5811L6.77506 10.5473C8.57455 10.5095 10.383 10.5852 12.1825 10.5095C12.6774 10.377 13.0013 9.97974 13.0463 9.44056V2.12839C12.9923 1.45677 12.5244 1.04056 11.8946 1.02164H2.0874C1.45758 1.05947 1.00771 1.48515 0.962725 2.15677V9.44056C0.971722 9.99866 1.48458 10.5473 2.01542 10.5473H4.08483V12.6284V12.6189Z" fill="#7A7A7A"/>
<path d="M4.17479 3.88782H9.78019C10.41 3.95403 10.419 4.85268 9.78019 4.9189H4.21078C3.60795 4.84322 3.56296 4.01079 4.16579 3.88782H4.17479Z" fill="#7A7A7A"/>
<path d="M4.17479 6.6405H9.78019C10.428 6.70672 10.401 7.60537 9.78019 7.67158H4.23778C3.59896 7.60537 3.56297 6.77294 4.1658 6.6405H4.17479Z" fill="#7A7A7A"/>
</g>
<defs>
<clipPath id="clip0_288_341">
<rect width="14" height="14" fill="white"/>
</clipPath>
</defs>
</svg>
