<svg width="20" height="20" viewBox="0 0 20 20" fill="none" xmlns="http://www.w3.org/2000/svg">
<g clip-path="url(#clip0_163_142)">
<path d="M19.0528 9.9978C20.0274 9.15921 20.302 7.72066 19.6328 6.57186L17.8037 3.42204C17.4365 2.79139 16.8462 2.34142 16.1359 2.15052C15.5971 2.00734 15.0411 2.0278 14.5264 2.20847C14.2827 0.950585 13.1674 -0.00390625 11.8291 -0.00390625H8.16743C6.83249 -0.00390625 5.71376 0.950585 5.4701 2.20847C4.95535 2.03121 4.39941 2.00734 3.86063 2.15052C3.1537 2.33801 2.56002 2.79139 2.19282 3.42204L0.367153 6.57527C-0.302031 7.72406 -0.0274939 9.16262 0.947112 10.0012C-0.0274939 10.8398 -0.302031 12.2784 0.367153 13.4271L2.19625 16.577C2.56345 17.2076 3.1537 17.6576 3.86406 17.8485C4.40284 17.9917 4.95878 17.9712 5.47354 17.7905C5.71719 19.0484 6.83249 20.0029 8.17086 20.0029H11.8325C13.1674 20.0029 14.2862 19.0484 14.5298 17.7905C15.0446 17.9712 15.6005 17.9917 16.1393 17.8485C16.8462 17.661 17.4399 17.2076 17.8071 16.577L19.6362 13.4271C20.3054 12.2784 20.0308 10.8398 19.0562 10.0012L19.0528 9.9978ZM17.7144 11.2727C18.1503 11.5216 18.3013 12.0806 18.0508 12.5136L16.2217 15.6634C16.0981 15.8747 15.9025 16.0247 15.6657 16.0861C15.4289 16.1509 15.1818 16.1168 14.9725 15.994C14.5161 15.7316 13.9464 15.7316 13.49 15.994C13.0267 16.2599 12.7488 16.7372 12.7488 17.269C12.7488 17.7701 12.337 18.1792 11.8325 18.1792H8.17086C7.6664 18.1792 7.25459 17.7701 7.25459 17.269C7.25459 16.7372 6.97663 16.2599 6.51334 15.994C6.28342 15.8645 6.02947 15.7963 5.7721 15.7963C5.51472 15.7963 5.26077 15.8611 5.03085 15.994C4.82151 16.1168 4.57443 16.1474 4.33764 16.0861C4.10085 16.0247 3.90525 15.8747 3.7817 15.6634L1.9526 12.5136C1.69866 12.0806 1.84965 11.5216 2.28548 11.2727C2.7419 11.0102 3.02673 10.5228 3.02673 9.9978C3.02673 9.47283 2.7419 8.98536 2.28548 8.72287C1.84965 8.47402 1.69866 7.91496 1.94917 7.48203L3.77827 4.33221C3.90181 4.12086 4.09742 3.97087 4.33421 3.90951C4.571 3.84474 4.81808 3.87883 5.02741 4.00155C5.48383 4.26403 6.0535 4.26062 6.50991 4.00155C6.97319 3.73565 7.25116 3.25841 7.25116 2.72662C7.25116 2.22551 7.66297 1.81645 8.16743 1.81645H11.8291C12.3335 1.81645 12.7453 2.22551 12.7453 2.72662C12.7453 3.25841 13.0233 3.73565 13.4866 4.00155C13.943 4.26403 14.5127 4.26403 14.9691 4.00155C15.1818 3.88224 15.4255 3.84815 15.6623 3.90951C15.8991 3.97087 16.0947 4.12086 16.2182 4.33221L18.0473 7.48203C18.3013 7.91496 18.1503 8.47402 17.7144 8.72287C17.258 8.98536 16.9732 9.47283 16.9732 9.9978C16.9732 10.5228 17.258 11.0102 17.7144 11.2727ZM18.6273 9.69782C18.6273 9.69782 18.6376 9.70463 18.641 9.70463C18.6376 9.70463 18.6307 9.69782 18.6273 9.69782Z" fill="#1E1E1E"/>
<path d="M10 5.45422C7.4777 5.45422 5.42554 7.49274 5.42554 9.99828C5.42554 12.5038 7.4777 14.5423 10 14.5423C12.5223 14.5423 14.5745 12.5038 14.5745 9.99828C14.5745 7.49274 12.5223 5.45422 10 5.45422ZM10 12.7254C8.48662 12.7254 7.25464 11.5016 7.25464 9.99828C7.25464 8.49496 8.48662 7.27117 10 7.27117C11.5134 7.27117 12.7454 8.49496 12.7454 9.99828C12.7454 11.5016 11.5134 12.7254 10 12.7254Z" fill="#1E1E1E"/>
</g>
<defs>
<clipPath id="clip0_163_142">
<rect width="20" height="20" fill="white"/>
</clipPath>
</defs>
</svg>
