<svg width="20" height="20" viewBox="0 0 20 20" fill="none" xmlns="http://www.w3.org/2000/svg">
<g clip-path="url(#clip0_169_157)">
<path d="M9.9983 0C4.48611 0 0 4.48611 0 9.9983C0 15.5105 4.48611 19.9966 9.9983 19.9966C15.5105 19.9966 19.9966 15.5105 19.9966 9.9983C19.9966 4.48611 15.5139 0 9.9983 0ZM9.9983 18.1796C5.48832 18.1796 1.81694 14.5083 1.81694 9.9983C1.81694 5.48832 5.48832 1.81694 9.9983 1.81694C14.5083 1.81694 18.1796 5.48832 18.1796 9.9983C18.1796 14.5083 14.5083 18.1796 9.9983 18.1796Z" fill="#1E1E1E"/>
<path d="M16.3627 10.9085H15.4082C15.4355 10.6085 15.4525 10.3051 15.4525 9.99835C15.4525 9.69155 15.4355 9.39156 15.4082 9.08817H16.3627C16.8638 9.08817 17.2729 8.68251 17.2729 8.178C17.2729 7.67348 16.8672 7.26782 16.3627 7.26782H15.0707C14.7401 6.09516 14.2015 4.99068 13.4515 3.99528C13.1481 3.59303 12.5788 3.51462 12.18 3.81461C11.7811 4.11459 11.6993 4.68729 11.9993 5.08613C12.5038 5.75768 12.8924 6.494 13.1686 7.26782H6.83142C7.10414 6.494 7.49275 5.75768 8.00068 5.08613C8.30066 4.68388 8.22225 4.11459 7.82 3.81461C7.41776 3.51122 6.84847 3.59303 6.54849 3.99528C5.80194 4.99068 5.26333 6.09857 4.92926 7.26782H3.63729C3.13618 7.26782 2.72711 7.67348 2.72711 8.178C2.72711 8.68251 3.13277 9.08817 3.63729 9.08817H4.59178C4.56451 9.38815 4.54746 9.69155 4.54746 9.99835C4.54746 10.3051 4.56451 10.6051 4.59178 10.9085H3.63729C3.13618 10.9085 2.72711 11.3142 2.72711 11.8187C2.72711 12.3232 3.13277 12.7289 3.63729 12.7289H4.92926C5.25992 13.9015 5.79853 15.006 6.54508 16.0014C6.72234 16.24 6.99846 16.3662 7.27458 16.3662C7.46548 16.3662 7.65638 16.3082 7.82 16.1855C8.22225 15.8855 8.30066 15.3128 8.00068 14.914C7.49616 14.2424 7.10754 13.5061 6.83483 12.7323H13.172C12.8993 13.5061 12.5106 14.2424 12.0061 14.914C11.7061 15.3162 11.7846 15.8855 12.1868 16.1855C12.3504 16.3082 12.5413 16.3662 12.7322 16.3662C13.0083 16.3662 13.2811 16.24 13.4617 16.0014C14.2083 15.006 14.7469 13.8981 15.0775 12.7289H16.3695C16.8706 12.7289 17.2797 12.3232 17.2797 11.8187C17.2797 11.3142 16.874 10.9085 16.3695 10.9085H16.3627ZM13.581 10.9085H6.41895C6.38486 10.6085 6.36441 10.3051 6.36441 9.99835C6.36441 9.69155 6.38827 9.38815 6.41895 9.08817H13.581C13.6151 9.38815 13.6356 9.69155 13.6356 9.99835C13.6356 10.3051 13.6117 10.6085 13.581 10.9085Z" fill="#1E1E1E"/>
</g>
<defs>
<clipPath id="clip0_169_157">
<rect width="20" height="20" fill="white"/>
</clipPath>
</defs>
</svg>
