<svg width="15" height="20" viewBox="0 0 15 20" fill="none" xmlns="http://www.w3.org/2000/svg">
<g clip-path="url(#clip0_171_165)">
<path d="M3.33438 15.8344C2.875 15.8344 2.5 16.2062 2.5 16.6687C2.5 17.1312 2.87188 17.5031 3.33438 17.5031H14.1687C14.6281 17.5031 15.0031 17.1312 15.0031 16.6687C15.0031 16.2062 14.6313 15.8344 14.1687 15.8344H3.33438Z" fill="#1E1E1E"/>
<path d="M10.8344 0H4.16563C1.86875 0 0 1.86875 0 4.16563V16.6656C0 18.5031 1.49688 20 3.33437 20H14.1687C14.6281 20 15.0031 19.6281 15.0031 19.1656C15.0031 18.7031 14.6313 18.3312 14.1687 18.3312H3.33437C2.41563 18.3312 1.66875 17.5844 1.66875 16.6656C1.66875 15.7469 2.41563 15 3.33437 15H12.5C13.8781 15 15 13.8781 15 12.5V4.16563C15 1.86875 13.1312 0 10.8344 0ZM13.3344 12.5C13.3344 12.9594 12.9594 13.3344 12.5 13.3344H3.33437C2.72813 13.3344 2.15937 13.4969 1.66875 13.7812V4.16563C1.66875 2.7875 2.79063 1.66562 4.16875 1.66562H10.8344C12.2125 1.66562 13.3344 2.7875 13.3344 4.16563V12.5Z" fill="#1E1E1E"/>
<path d="M10.8344 6.66565H4.16563C3.70625 6.66565 3.33125 7.03752 3.33125 7.50002C3.33125 7.96252 3.70313 8.3344 4.16563 8.3344H10.8313C11.2906 8.3344 11.6656 7.96252 11.6656 7.50002C11.6656 7.03752 11.2938 6.66565 10.8313 6.66565H10.8344Z" fill="#1E1E1E"/>
<path d="M10.8344 3.33435H4.16563C3.70625 3.33435 3.33125 3.70623 3.33125 4.16873C3.33125 4.63123 3.70313 5.0031 4.16563 5.0031H10.8313C11.2906 5.0031 11.6656 4.63123 11.6656 4.16873C11.6656 3.70623 11.2938 3.33435 10.8313 3.33435H10.8344Z" fill="#1E1E1E"/>
</g>
<defs>
<clipPath id="clip0_171_165">
<rect width="15" height="20" fill="white"/>
</clipPath>
</defs>
</svg>
