<svg width="18" height="19" viewBox="0 0 18 19" fill="none" xmlns="http://www.w3.org/2000/svg">
<path d="M1 8.79451V14.1425C1 15.2626 1 15.823 1.21799 16.2508C1.40973 16.6272 1.71547 16.9328 2.0918 17.1246C2.5192 17.3424 3.07899 17.3424 4.19691 17.3424H13.8031C14.921 17.3424 15.48 17.3424 15.9074 17.1246C16.2837 16.9328 16.5905 16.6272 16.7822 16.2508C17 15.8234 17 15.2639 17 14.1459V8.79451C17 8.26017 16.9995 7.99286 16.9346 7.74422C16.877 7.52387 16.7825 7.31535 16.6546 7.12693C16.5102 6.9143 16.3096 6.73797 15.9074 6.38611L11.1074 2.18611C10.3608 1.53283 9.98751 1.20635 9.56738 1.08211C9.19719 0.972631 8.80261 0.972631 8.43242 1.08211C8.01261 1.20626 7.63985 1.53242 6.89436 2.18472L2.09277 6.38611C1.69064 6.73798 1.49004 6.9143 1.3457 7.12693C1.21779 7.31536 1.12255 7.52387 1.06497 7.74422C1 7.99286 1 8.26017 1 8.79451Z" stroke="#1E1E1E" stroke-width="2" stroke-linecap="round" stroke-linejoin="round"/>
</svg>
