<svg width="17" height="22" viewBox="0 0 17 22" fill="none" xmlns="http://www.w3.org/2000/svg">
<g clip-path="url(#clip0_334_487)">
<path d="M15.6823 14.602C15.2117 13.9454 14.8066 13.3771 14.8066 12.7718C14.8066 12.0462 14.7974 11.516 14.7893 11.0477C14.7824 10.6545 14.7766 10.3149 14.7766 9.92052C14.7766 6.44728 12.7052 4.35499 10.6026 3.51021C10.7591 3.18493 10.85 2.81914 10.85 2.4319C10.85 1.09145 9.79702 0.0012207 8.50234 0.0012207C7.20766 0.0012207 6.15465 1.09145 6.15465 2.4319C6.15465 2.81914 6.24557 3.18493 6.40208 3.51021C4.29952 4.35499 2.22803 6.44728 2.22803 9.92052C2.22803 10.3149 2.22228 10.6545 2.21537 11.0477C2.20732 11.516 2.19811 12.0462 2.19811 12.7718C2.19811 13.3783 1.79187 13.9454 1.32233 14.602C0.704341 15.4658 0.00463867 16.444 0.00463867 17.8262C0.00463867 18.8842 0.63299 19.2953 1.00701 19.4454C1.43742 19.6182 1.91271 19.6158 2.41562 19.617H5.10395C5.64944 21.0337 6.98095 22 8.50464 22C10.0283 22 11.3598 21.0337 11.9053 19.617H14.6547C15.1357 19.617 15.5903 19.6111 16.0023 19.4454C16.3763 19.2953 17.0046 18.8854 17.0046 17.8262C17.0046 16.444 16.3038 15.4658 15.6858 14.602H15.6823ZM7.87859 2.4307C7.87859 2.07564 8.15709 1.78729 8.50004 1.78729C8.84298 1.78729 9.12148 2.07564 9.12148 2.4307C9.12148 2.78577 8.84298 3.07412 8.50004 3.07412C8.15709 3.07412 7.87859 2.78577 7.87859 2.4307ZM8.50004 20.2128C7.9649 20.2128 7.4735 19.9876 7.12019 19.617H9.87872C9.52542 19.9876 9.03402 20.2128 8.49888 20.2128H8.50004ZM14.5902 17.8298H2.40986C2.19466 17.8298 1.8966 17.8298 1.72627 17.8035C1.73433 17.0219 2.1843 16.3928 2.70563 15.666C3.27529 14.87 3.9209 13.9669 3.9209 12.7718C3.9209 12.0629 3.93011 11.541 3.93816 11.0799C3.94507 10.695 3.95082 10.3304 3.95082 9.92052C3.95082 6.46992 6.66562 4.86257 8.50004 4.86257C10.3345 4.86257 13.0492 6.46992 13.0492 9.92052C13.0492 10.3304 13.0562 10.695 13.0619 11.0799C13.07 11.5398 13.0792 12.0617 13.0792 12.7718C13.0792 13.9681 13.7248 14.87 14.2944 15.666C14.8146 16.3928 15.2646 17.0219 15.2738 17.8035C15.1035 17.8298 14.8031 17.8298 14.5902 17.8298Z" fill="#1E1E1E"/>
</g>
<defs>
<clipPath id="clip0_334_487">
<rect width="17" height="22" fill="white"/>
</clipPath>
</defs>
</svg>
