<svg width="21" height="16" viewBox="0 0 21 16" fill="none" xmlns="http://www.w3.org/2000/svg">
<g clip-path="url(#clip0_159_133)">
<path d="M16.6261 0H4.37391C1.96219 0 0 1.99333 0 4.44333V11.5533C0 14.0033 1.96219 15.9967 4.37391 15.9967H16.6228C19.0345 15.9967 20.9967 14.0033 20.9967 11.5533V4.44333C20.9967 1.99333 19.0345 0 16.6228 0H16.6261ZM19.2511 11.5567C19.2511 13.0267 18.0731 14.2233 16.6261 14.2233H4.37391C2.92688 14.2233 1.74891 13.0267 1.74891 11.5567V4.44333C1.74891 2.97333 2.92688 1.77667 4.37391 1.77667H16.6228C18.0698 1.77667 19.2478 2.97333 19.2478 4.44333V11.5533L19.2511 11.5567Z" fill="#1E1E1E"/>
<path d="M15.6548 8.42327L18.1978 4.97661C18.4898 4.58327 18.4111 4.02661 18.0239 3.73327C17.6367 3.43994 17.0887 3.51994 16.8 3.90994L12.6 9.59994C12.1045 10.2699 11.3203 10.6666 10.5 10.6666C9.67969 10.6666 8.89219 10.2666 8.4 9.59994L4.2 3.90994C3.90797 3.51661 3.36328 3.43661 2.97609 3.73327C2.58891 4.02661 2.51016 4.58327 2.80219 4.97661L5.34516 8.42327L2.88094 10.9266C2.53969 11.2733 2.53969 11.8366 2.88094 12.1833C3.22219 12.5299 3.77672 12.5299 4.11797 12.1833L6.405 9.85994L6.99891 10.6666C7.8225 11.7799 9.12844 12.4433 10.5 12.4433C11.8716 12.4433 13.1775 11.7799 14.0011 10.6666L14.595 9.85994L16.882 12.1833C17.2233 12.5299 17.7778 12.5299 18.1191 12.1833C18.4603 11.8366 18.4603 11.2733 18.1191 10.9266L15.6548 8.42327Z" fill="#1E1E1E"/>
</g>
<defs>
<clipPath id="clip0_159_133">
<rect width="21" height="16" fill="white"/>
</clipPath>
</defs>
</svg>
