<svg width="19" height="20" viewBox="0 0 19 20" fill="none" xmlns="http://www.w3.org/2000/svg">
<path d="M18.983 13.8493C18.9389 13.6292 18.8132 13.4401 18.6298 13.3198C18.4465 13.1995 18.2257 13.1582 18.0152 13.2063C17.7231 13.2682 17.4345 13.3129 17.1526 13.3404C16.8844 13.3714 16.6025 13.3851 16.2901 13.3851C14.0658 13.3851 11.9739 12.5084 10.3948 10.9165C8.82252 9.32461 7.95657 7.20324 7.95657 4.94778C7.95657 4.28421 8.03128 3.63783 8.17391 3.01895C8.31653 2.39664 8.53047 1.78464 8.81573 1.20359C8.89723 1.03511 8.9244 0.846013 8.88704 0.667227C8.8429 0.447182 8.71725 0.258081 8.53387 0.137744C8.35049 0.0174075 8.12976 -0.0238509 7.91921 0.0242838C5.68811 0.495317 3.66416 1.75026 2.22431 3.55188C0.791242 5.3363 0 7.59176 0 9.89879C0 12.5978 1.03575 15.1352 2.92046 17.0434C4.80518 18.9516 7.31135 20.0002 9.97712 20.0002C11.8347 20.0002 13.6481 19.4776 15.2272 18.4874C16.8164 17.4869 18.0899 16.0669 18.9151 14.3822C18.9966 14.2172 19.0204 14.0246 18.9864 13.8458L18.983 13.8493ZM6.70349 2.13878C6.65594 2.30725 6.6118 2.47572 6.57784 2.64075C6.40125 3.38684 6.31296 4.16044 6.31296 4.94435C6.31296 7.64333 7.3487 10.1807 9.23342 12.0889C11.1215 13.9971 13.6277 15.0458 16.2901 15.0458C16.3886 15.0458 16.4836 15.0458 16.5855 15.0423C15.9743 15.8469 15.217 16.5414 14.3612 17.0777C13.0538 17.8995 11.5392 18.3361 9.97712 18.3361C7.74942 18.3361 5.65755 17.4594 4.08186 15.8675C2.50956 14.2756 1.64361 12.1542 1.64361 9.89879C1.64361 7.96652 2.30241 6.08239 3.49777 4.59365C4.36372 3.51062 5.46059 2.67513 6.70349 2.13878Z" fill="#1E1E1E"/>
</svg>
