<svg width="20" height="20" viewBox="0 0 20 20" fill="none" xmlns="http://www.w3.org/2000/svg">
<g clip-path="url(#clip0_171_415)">
<path d="M9.9993 1.82469C14.5077 1.82469 18.1739 5.49231 18.1739 9.9993C18.1739 14.5063 14.5063 18.1739 9.9993 18.1739C5.49231 18.1739 1.82469 14.5077 1.82469 9.9993C1.82469 5.49091 5.49231 1.82469 9.9993 1.82469ZM9.9993 0C4.47751 0 0 4.47751 0 9.9993C0 15.5225 4.47751 19.9986 9.9993 19.9986C15.5225 19.9986 19.9986 15.5211 19.9986 9.9993C20 4.47751 15.5225 0 9.9993 0Z" fill="#1E1E1E"/>
<path d="M9.21748 12.8921C9.03221 12.8921 8.84693 12.836 8.68692 12.7223L6.62783 11.2499C6.21797 10.9566 6.12393 10.3867 6.41588 9.97685C6.70924 9.567 7.2791 9.47296 7.68895 9.76491L9.11923 10.7867L12.5314 7.37456C12.8879 7.01805 13.4648 7.01805 13.8213 7.37456C14.1778 7.73108 14.1778 8.30796 13.8213 8.66448L9.86314 12.6227C9.68629 12.7995 9.45329 12.8893 9.21748 12.8893V12.8921Z" fill="#1E1E1E"/>
</g>
<defs>
<clipPath id="clip0_171_415">
<rect width="20" height="20" fill="white"/>
</clipPath>
</defs>
</svg>
