<svg width="56" height="56" viewBox="0 0 56 56" fill="none" xmlns="http://www.w3.org/2000/svg">
<path d="M27.9983 0L0 28.0017L27.9983 56L56 28.0017L27.9983 0ZM2.74449 28.0017L27.9983 2.74621L53.2521 28L27.9983 53.2521L2.74449 28.0017Z" fill="#253A6F"/>
<path d="M28 2.74622L2.7462 28L28 53.2538L53.2538 28L28 2.74622ZM28 5.49414L39.9082 17.4006L28 29.3089L16.0935 17.4006L28 5.49414ZM28 50.5059L5.49412 28L7.31522 26.1789L29.8211 48.6848L28 50.5059ZM31.4469 47.059L8.94101 24.5531L10.7621 22.732L33.268 45.2379L31.4469 47.059ZM34.8938 43.6104L12.3896 21.1045L14.2107 19.2834L36.7166 41.7893L34.8955 43.6104H34.8938ZM38.3424 40.1635L29.314 31.1351L31.1351 29.314L40.1635 38.3424L38.3424 40.1635ZM41.7893 36.7166L32.7609 27.6882L34.582 25.8671L43.6104 34.8955L41.7893 36.7166ZM45.2379 33.268L36.2095 24.2396L38.0306 22.4185L47.059 31.4469L45.2379 33.268ZM39.6564 20.7927L41.4775 18.9716L50.5059 28L48.6848 29.8211L39.6564 20.7927Z" fill="white"/>
<path d="M14.2143 19.28L12.393 21.1001L34.8904 43.6132L36.7117 41.7931L14.2143 19.28Z" fill="#CD1F36"/>
<path d="M7.3158 26.1781L5.49387 28.0001L27.9991 50.5053L29.821 48.6834L7.3158 26.1781Z" fill="#CD1F36"/>
<path d="M10.7572 22.737L8.93712 24.5583L31.4502 47.0557L33.2703 45.2344L10.7572 22.737Z" fill="#CD1F36"/>
<path d="M31.1333 29.3145L29.3132 31.1359L38.3449 40.1612L40.165 38.3399L31.1333 29.3145Z" fill="#CD1F36"/>
<path d="M41.4776 18.9716L39.6557 20.7935L48.6842 29.822L50.5061 28.0001L41.4776 18.9716Z" fill="#CD1F36"/>
<path d="M34.5833 25.8662L32.7614 27.6881L41.7899 36.7166L43.6118 34.8947L34.5833 25.8662Z" fill="#CD1F36"/>
<path d="M38.0302 22.4204L36.2095 24.2411L45.238 33.2696L47.0587 31.4489L38.0302 22.4204Z" fill="#CD1F36"/>
<path d="M28 5.49414L16.0935 17.4007L28 29.3089L39.9082 17.4007L28 5.49414ZM28.1131 19.6415L24.0649 22.583L25.6118 17.8255L21.5636 14.884H26.5678L28.1131 10.1248L29.6583 14.884H34.6625L30.6143 17.8255L32.1613 22.583L28.1131 19.6415Z" fill="#253A6F"/>
<path d="M30.6143 17.8255L32.1613 22.583L28.1131 19.6415L24.0649 22.583L25.6118 17.8255L21.5636 14.884H26.5678L28.1131 10.1248L29.6601 14.884H34.6625L30.6143 17.8255Z" fill="white"/>
</svg>
