<svg width="14" height="14" viewBox="0 0 14 14" fill="none" xmlns="http://www.w3.org/2000/svg">
<path d="M6.88 0C3.09 0 0 3.01758 0 6.71875C0 10.4199 3.09 13.4375 6.88 13.4375C10.67 13.4375 13.76 10.4199 13.76 6.71875C13.76 3.01758 10.67 0 6.88 0ZM6.88 1.37695C9.91 1.37695 12.35 3.75977 12.35 6.71875C12.35 9.67774 9.91 12.0605 6.88 12.0605C3.85 12.0605 1.41 9.67774 1.41 6.71875C1.41 3.75977 3.85 1.37695 6.88 1.37695ZM6.77 3.25195C6.52 3.25195 6.31 3.44727 6.31 3.70117V7.46094C6.32 7.63672 6.42 7.80274 6.57 7.87109L9.76 9.20899C9.97 9.29688 10.22 9.18945 10.32 8.95508C10.42 8.73047 10.33 8.47656 10.12 8.38867L7.22 7.16797V3.70117C7.22 3.45703 7.02 3.25195 6.76 3.25195H6.77Z" fill="#7A7A7A"/>
</svg>
