<svg width="16" height="16" viewBox="0 0 16 16" fill="none" xmlns="http://www.w3.org/2000/svg">
<g clip-path="url(#clip0_98_625)">
<path d="M4.53505 1.62481C5.07651 1.62481 5.51846 2.07109 5.51846 2.62027V4.5917C5.51846 5.1398 5.07758 5.58716 4.53505 5.58716H2.58748C2.04601 5.58716 1.60407 5.14088 1.60407 4.5917V2.62027C1.60407 2.07217 2.04494 1.62481 2.58748 1.62481H4.53505ZM4.53505 0H2.58748C1.15891 0 0 1.17311 0 2.62027V4.5917C0 6.03886 1.15891 7.21197 2.58855 7.21197H4.53612C5.96576 7.21197 7.12467 6.03886 7.12467 4.5917V2.62027C7.12467 1.17311 5.96576 0 4.53612 0H4.53505Z" fill="#1E1E1E"/>
<path d="M13.4125 1.62481C13.954 1.62481 14.3959 2.07109 14.3959 2.62027V4.5917C14.3959 5.1398 13.9551 5.58716 13.4125 5.58716H11.465C10.9235 5.58716 10.4815 5.14088 10.4815 4.5917V2.62027C10.4815 2.07217 10.9224 1.62481 11.465 1.62481H13.4125ZM13.4125 0H11.465C10.0353 0 8.8764 1.17311 8.8764 2.62027V4.5917C8.8764 6.03886 10.0353 7.21197 11.465 7.21197H13.4125C14.8422 7.21197 16.0011 6.03886 16.0011 4.5917V2.62027C16.0011 1.17311 14.8422 0 13.4125 0Z" fill="#1E1E1E"/>
<path d="M4.53505 10.4139C5.07651 10.4139 5.51846 10.8601 5.51846 11.4093V13.3808C5.51846 13.9289 5.07758 14.3762 4.53505 14.3762H2.58748C2.04602 14.3762 1.60407 13.9299 1.60407 13.3808V11.4093C1.60407 10.8612 2.04495 10.4139 2.58748 10.4139H4.53505ZM4.53505 8.78906H2.58748C1.15784 8.78906 -0.00106812 9.96217 -0.00106812 11.4093V13.3808C-0.00106812 14.8279 1.15784 16.001 2.58748 16.001H4.53505C5.96469 16.001 7.1236 14.8279 7.1236 13.3808V11.4093C7.1236 9.96217 5.96469 8.78906 4.53505 8.78906Z" fill="#1E1E1E"/>
<path d="M13.4125 10.4139C13.954 10.4139 14.3959 10.8601 14.3959 11.4093V13.3808C14.3959 13.9289 13.9551 14.3762 13.4125 14.3762H11.465C10.9235 14.3762 10.4815 13.9299 10.4815 13.3808V11.4093C10.4815 10.8612 10.9224 10.4139 11.465 10.4139H13.4125ZM13.4125 8.78906H11.465C10.0353 8.78906 8.8764 9.96217 8.8764 11.4093V13.3808C8.8764 14.8279 10.0353 16.001 11.465 16.001H13.4125C14.8422 16.001 16.0011 14.8279 16.0011 13.3808V11.4093C16.0011 9.96217 14.8422 8.78906 13.4125 8.78906Z" fill="#1E1E1E"/>
</g>
<defs>
<clipPath id="clip0_98_625">
<rect width="16" height="16" fill="white"/>
</clipPath>
</defs>
</svg>
