<svg width="63" height="18" viewBox="0 0 63 18" fill="none" xmlns="http://www.w3.org/2000/svg">
<path d="M63 4.02083V0.315137H52.339V16.1997L48.081 10.8456C48.073 10.8068 48.1016 10.7987 48.127 10.7842C48.3113 10.6727 48.5973 10.5805 48.8055 10.4658C50.9869 9.26665 52.0053 7.05584 51.4477 4.56222C50.8058 1.68235 48.0333 0.454121 45.3641 0.315137H39.0819V6.66314C38.0682 2.82492 34.6252 0 30.534 0C27.2372 0 24.3614 1.83426 22.8393 4.55576V0.869456C21.9973 0.446041 21.0551 0.239181 20.1256 0.100198L19.2057 0.0145448H18.6432L18.5781 0.0436344C14.6299 0.127671 11.0296 3.0431 10.1526 6.96211H4.36609V4.01921H10.715V0.315137H0V17.7253H10.715V14.0196H4.36609V10.6678H10.0715C10.7436 14.4656 13.9101 17.3875 17.6423 17.9111L18.4017 17.9968H19.4456L20.445 17.8836C21.2712 17.7608 22.0751 17.52 22.8377 17.1839V13.4442C24.3598 16.1641 27.2356 18 30.5324 18C34.6236 18 38.0666 15.1751 39.0787 11.3385V11.3498V17.7253H43.4718V11.4855L48.1763 17.7204L62.9984 17.7253V14.0196H56.6765V10.6678H62.7839V6.96211H56.6765V4.01921H62.9984L63 4.02083ZM22.0084 12.8851C21.1965 13.4152 20.2543 13.7061 19.3121 13.7529C19.1771 13.7642 19.0436 13.7707 18.9118 13.7707C18.1777 13.7707 17.4834 13.5913 16.8669 13.2746C15.9661 12.8382 15.205 12.1061 14.7522 11.0686C14.6458 10.8229 14.5584 10.5741 14.4917 10.3236C14.3788 9.91147 14.3169 9.47836 14.3169 9.02909C14.3169 9.02747 14.3169 9.02586 14.3169 9.02424C14.3169 9.02262 14.3169 9.01939 14.3169 9.01778C14.3169 9.00162 14.3169 8.98707 14.3169 8.97253C14.328 6.95241 15.5546 5.11169 17.5136 4.4895C17.9537 4.34405 18.424 4.26486 18.9118 4.26486C18.9245 4.26486 18.9372 4.26486 18.9483 4.26486C20.0557 4.25516 21.3172 4.58484 22.1863 5.25229C22.1863 5.25229 22.1895 5.25391 22.1895 5.25552C22.2674 5.30239 22.3452 5.35249 22.4215 5.40259C21.948 6.50476 21.6858 7.72167 21.6858 9.00162C21.6858 10.2816 21.9528 11.5179 22.4342 12.6281C22.2959 12.7202 22.153 12.8059 22.0084 12.8883V12.8851ZM30.534 13.7707C28.0936 13.7707 26.1155 11.6342 26.1155 9C26.1155 6.36577 28.0936 4.22931 30.534 4.22931C32.9744 4.22931 34.9525 6.36577 34.9525 9C34.9525 11.6342 32.9744 13.7707 30.534 13.7707ZM46.4047 7.58915C45.5738 8.28892 44.4727 8.0756 43.4718 8.10792V3.96588C44.4743 3.99336 45.6072 3.79781 46.4318 4.5105C47.3199 5.27815 47.3008 6.83444 46.4032 7.58915H46.4047Z" fill="#2257E5"/>
</svg>
