<svg width="45" height="39" viewBox="0 0 45 39" fill="none" xmlns="http://www.w3.org/2000/svg">
<path d="M44.14 1.14L42.83 10.37C42.7 11.29 41.96 11.96 41.07 11.96H20.06C19.18 11.96 18.44 12.62 18.31 13.54L15.35 34.37C15.27 34.96 15.72 35.52 16.29 35.52H24.86C26.19 35.52 27.29 34.52 27.48 33.15L28.31 27.33C28.37 26.87 28.74 26.54 29.18 26.54H35.17C36.18 26.54 36.4 25.08 35.46 24.66L30.34 22.41C29.4 21.99 29.62 20.53 30.63 20.53H42.9C44.06 20.53 44.98 21.65 44.81 22.85L43.49 32.11C42.96 35.82 39.99 38.51 36.42 38.51H1.92001C0.760005 38.51 -0.149995 37.4 0.0200053 36.2L3.70001 10.3C4.55001 4.32 9.33001 0 15.09 0H43.2C43.77 0 44.22 0.55 44.14 1.14Z" fill="#2257E5"/>
</svg>
