<svg width="11" height="11" viewBox="0 0 11 11" fill="none" xmlns="http://www.w3.org/2000/svg">
<path d="M10.0149 1.3221C9.94621 1.25545 9.86537 1.22192 9.77193 1.22192C9.72541 1.22192 9.6273 1.25922 9.47821 1.33281C9.32891 1.4066 9.17048 1.48872 9.00371 1.58037C8.83654 1.67142 8.63869 1.75394 8.41038 1.82773C8.18227 1.90132 7.97102 1.93861 7.77663 1.93861C7.59707 1.93861 7.43863 1.90529 7.30213 1.83844C6.84937 1.63135 6.45551 1.47682 6.12116 1.37486C5.78682 1.2731 5.42729 1.22192 5.04237 1.22192C4.37774 1.22192 3.62069 1.43298 2.77204 1.85431C2.59694 1.93961 2.47141 2.00566 2.39016 2.05406L2.30952 1.47662C2.49173 1.3221 2.60933 1.09695 2.60933 0.84285C2.60933 0.377289 2.22299 0 1.74626 0C1.26952 0 0.883179 0.377289 0.883179 0.84285C0.883179 1.14655 1.04934 1.41057 1.29593 1.55894L2.46187 9.9081C2.4966 10.1566 2.71435 10.337 2.9644 10.337C2.98715 10.337 3.0103 10.3356 3.03366 10.3326C3.31154 10.2953 3.50613 10.0456 3.46815 9.7742L2.99954 6.41847C3.84982 6.00647 4.58534 5.79878 5.20405 5.79878C5.46669 5.79878 5.72284 5.83707 5.97248 5.91443C6.22232 5.99199 6.43012 6.0761 6.59546 6.16714C6.7608 6.25839 6.95601 6.3429 7.18046 6.41986C7.40532 6.49722 7.62734 6.5359 7.84651 6.5359C8.40023 6.5359 9.06343 6.33218 9.83632 5.92494C9.93341 5.87575 10.0045 5.82735 10.0494 5.77994C10.0943 5.73253 10.1168 5.66508 10.1168 5.57741V1.55914C10.1168 1.46809 10.0829 1.38895 10.0149 1.3221Z" fill="#DD5B68"/>
</svg>
