<svg width="24" height="18" viewBox="0 0 24 18" fill="none" xmlns="http://www.w3.org/2000/svg">
<g clip-path="url(#clip0_335_319)">
<path d="M18.4476 0H5.02851C2.3871 0 0.238037 2.18317 0.238037 4.86651V12.6537C0.238037 15.337 2.3871 17.5202 5.02851 17.5202H18.444C21.0854 17.5202 23.2344 15.337 23.2344 12.6537V4.86651C23.2344 2.18317 21.0854 0 18.444 0H18.4476ZM21.3226 12.6573C21.3226 14.2673 20.0324 15.5779 18.4476 15.5779H5.02851C3.44366 15.5779 2.15351 14.2673 2.15351 12.6573V4.86651C2.15351 3.25651 3.44366 1.94587 5.02851 1.94587H18.444C20.0288 1.94587 21.319 3.25651 21.319 4.86651V12.6537L21.3226 12.6573Z" fill="#1E1E1E"/>
<path d="M17.3838 9.22552L20.169 5.4506C20.4888 5.0198 20.4026 4.41012 19.9785 4.08885C19.5544 3.76758 18.9543 3.8552 18.638 4.28234L14.038 10.5142C13.4954 11.2481 12.6365 11.6825 11.738 11.6825C10.8396 11.6825 9.9771 11.2444 9.43804 10.5142L4.83804 4.28234C4.51819 3.85155 3.92163 3.76393 3.49757 4.08885C3.07351 4.41012 2.98726 5.0198 3.3071 5.4506L6.09226 9.22552L3.39335 11.9673C3.0196 12.3469 3.0196 12.9639 3.39335 13.3436C3.7671 13.7233 4.37444 13.7233 4.74819 13.3436L7.25304 10.799L7.90351 11.6825C8.80554 12.9019 10.2358 13.6284 11.738 13.6284C13.2402 13.6284 14.6705 12.9019 15.5726 11.6825L16.223 10.799L18.7279 13.3436C19.1016 13.7233 19.709 13.7233 20.0827 13.3436C20.4565 12.9639 20.4565 12.3469 20.0827 11.9673L17.3838 9.22552Z" fill="#1E1E1E"/>
</g>
<defs>
<clipPath id="clip0_335_319">
<rect width="23" height="17.5238" fill="white" transform="translate(0.238037)"/>
</clipPath>
</defs>
</svg>
