<svg width="20" height="20" viewBox="0 0 20 20" fill="none" xmlns="http://www.w3.org/2000/svg">
<g clip-path="url(#clip0_335_311)">
<path d="M10.9085 9.6233V6.3644C10.9085 5.86329 10.5028 5.45422 9.99831 5.45422C9.49379 5.45422 9.08813 5.85988 9.08813 6.3644V10.0017C9.08813 10.2437 9.18358 10.4755 9.35403 10.646L12.9913 14.2833C13.1686 14.4605 13.4004 14.5492 13.6356 14.5492C13.8708 14.5492 14.0992 14.4605 14.2799 14.2833C14.6344 13.9287 14.6344 13.3526 14.2799 12.9981L10.9085 9.62671V9.6233Z" fill="#1E1E1E"/>
<path d="M9.9983 0C4.48611 0 0 4.48611 0 9.9983C0 15.5105 4.48611 19.9966 9.9983 19.9966C15.5105 19.9966 19.9966 15.5105 19.9966 9.9983C19.9966 4.48611 15.5139 0 9.9983 0ZM9.9983 18.1796C5.48832 18.1796 1.81694 14.5083 1.81694 9.9983C1.81694 5.48832 5.48832 1.81694 9.9983 1.81694C14.5083 1.81694 18.1796 5.48832 18.1796 9.9983C18.1796 14.5083 14.5083 18.1796 9.9983 18.1796Z" fill="#1E1E1E"/>
</g>
<defs>
<clipPath id="clip0_335_311">
<rect width="20" height="20" fill="white"/>
</clipPath>
</defs>
</svg>
