<svg width="13" height="13" viewBox="0 0 13 13" fill="none" xmlns="http://www.w3.org/2000/svg">
<path d="M12.4354 6.89453C12.52 6.6738 12.52 6.42458 12.4354 6.19672C12.3963 6.09703 12.3377 6.00447 12.2726 5.92614C12.266 5.91902 12.266 5.90478 12.2595 5.89766L7.32298 0.500296C6.99735 0.14427 6.46983 0.14427 6.15071 0.500296C5.82508 0.856323 5.82508 1.43309 6.15071 1.78199L9.66752 5.62708H1.65051C1.19463 5.62708 0.816895 6.03295 0.816895 6.53851C0.816895 7.04406 1.18811 7.44993 1.65051 7.44993H9.66752L6.58706 10.8179C6.26143 11.174 6.26143 11.7507 6.58706 12.0996C6.74987 12.2777 6.96479 12.3631 7.17319 12.3631C7.38159 12.3631 7.59651 12.2777 7.75933 12.0996L12.2595 7.17935C12.2595 7.17935 12.2856 7.13663 12.2986 7.11527C12.3507 7.04406 12.4028 6.97286 12.4354 6.88741V6.89453Z" fill="#1E1E1E"/>
</svg>
