<svg width="13" height="13" viewBox="0 0 13 13" fill="none" xmlns="http://www.w3.org/2000/svg">
<path d="M0.745414 5.7019C0.660751 5.92264 0.660751 6.17186 0.745414 6.39972C0.78449 6.4994 0.843103 6.59197 0.908229 6.6703C0.914742 6.67742 0.914742 6.69166 0.921255 6.69878L5.85781 12.0961C6.18344 12.4522 6.71096 12.4522 7.03007 12.0961C7.3557 11.7401 7.3557 11.1633 7.03007 10.8144L3.51327 6.96936L11.5303 6.96936C11.9862 6.96936 12.3639 6.56349 12.3639 6.05793C12.3639 5.55237 11.9927 5.1465 11.5303 5.1465L3.51327 5.1465L6.59373 1.77849C6.91936 1.42246 6.91936 0.845701 6.59373 0.496795C6.43091 0.318781 6.216 0.233335 6.00759 0.233335C5.79919 0.233335 5.58428 0.318782 5.42146 0.496795L0.921255 5.41708C0.921255 5.41708 0.895205 5.45981 0.88218 5.48117C0.830079 5.55237 0.777977 5.62358 0.745414 5.70902L0.745414 5.7019Z" fill="#1E1E1E"/>
</svg>
